<svg width="18" height="15" viewBox="0 0 18 15" fill="none" xmlns="http://www.w3.org/2000/svg">
<path d="M10.25 0C6.10833 0 2.75 3.35833 2.75 7.5H0.25L3.49167 10.7417L3.55 10.8583L6.91667 7.5H4.41667C4.41667 4.275 7.025 1.66667 10.25 1.66667C13.475 1.66667 16.0833 4.275 16.0833 7.5C16.0833 10.725 13.475 13.3333 10.25 13.3333C8.64167 13.3333 7.18333 12.675 6.13333 11.6167L4.95 12.8C6.30833 14.1583 8.175 15 10.25 15C14.3917 15 17.75 11.6417 17.75 7.5C17.75 3.35833 14.3917 0 10.25 0ZM9.41667 4.16667V8.33333L12.9833 10.45L13.5833 9.44167L10.6667 7.70833V4.16667H9.41667Z" fill="#463C49"/>
</svg>
