<svg width="26" height="22" viewBox="0 0 26 22" fill="none" xmlns="http://www.w3.org/2000/svg">
<path d="M25.4291 2.08179C25.227 1.87963 25.0755 1.72801 24.8734 1.57639L24.8228 1.52585C24.7723 1.47531 24.7723 1.47531 24.7218 1.47531C24.6713 1.42477 24.6207 1.42477 24.6207 1.42477C24.5702 1.42477 24.5702 1.37423 24.5197 1.37423C23.7113 0.919372 22.8018 0.666672 21.9429 0.666672C20.6293 0.666672 19.3661 1.17207 18.3556 2.13233L16.1831 4.30555L5.21916 0.868832H5.11812C5.06759 0.868832 5.01707 0.818292 4.91602 0.818292C4.86549 0.818292 4.81497 0.818292 4.76444 0.818292C4.41077 0.818292 4.10762 0.969912 3.85499 1.22261L2.69292 2.38503L10.3727 10.0671L7.18964 13.2511L2.2382 12.6952C2.18767 12.6952 2.13714 12.6952 2.13714 12.6952C1.98557 12.6952 1.83399 12.6952 1.68242 12.7963C1.53084 12.8468 1.32875 12.9479 1.2277 13.0995L0.166672 14.1608L7.24016 21.2364L25.8333 2.53665C25.7323 2.38503 25.5807 2.23341 25.4291 2.08179Z" fill="#3C3F49"/>
</svg>
